PathFileType	4	(X/Y/Z)	C:/Users/beibeiliu/ov580/test_trc/User3\sequence.41_training_dense_right.trc
DataRate	CameraRate	NumFrames	NumMarkers	Units	OrigDataRate	OrigDataStartFrame	OrigNumFrames
120	120	14	19	mm	120	189	301
Frame#	Time	ThumbCMC			ThumbMCP			ThumbIP			ThumbTip			IndexMCP			IndexPIP			IndexTip			MiddleMCP			MiddlePIP			MiddleTip			RingMCP			RingPIP			RingTip			PinkyMCP			PinkyPIP			PinkyTip			BackHand1			BackHand2			BackHand3	
		X0	Y0	Z0	X1	Y1	Z1	X2	Y2	Z2	X3	Y3	Z3	X4	Y4	Z4	X5	Y5	Z5	X6	Y6	Z6	X7	Y7	Z7	X8	Y8	Z8	X9	Y9	Z9	X10	Y10	Z10	X11	Y11	Z11	X12	Y12	Z12	X13	Y13	Z13	X14	Y14	Z14	X15	Y15	Z15	X16	Y16	Z16	X17	Y17	Z17	X18	Y18	Z18	
188	1.56667	62.3176	45.5376	9.66395	48.8656	30.0297	-20.2027	49.0775	15.9323	-51.4103	66.4354	5.97106	-67.8777	64.2199	61.5105	-64.3806	46.77	47.0734	-90.9602	35.6592	25.4895	-97.5464	83.6243	62.6202	-72.0771	75.5296	50.9477	-103.509	55.7895	22.5256	-119.795	97.3942	48.8622	-66.5071	87.4408	37.904	-95.0416	70.6864	9.6079	-105.457	111.954	27.9363	-59.8856	96.1354	12.6936	-78.8412	78.2999	-8.08103	-73.3913	113.152	54.6104	-16.342	123.553	50.948	10.6787	93.3366	68.5928	1.06587	
189	1.575	60.2427	46.5272	10.7342	45.0482	30.1717	-20.1914	46.6785	17.4394	-49.9544	62.1304	5.63644	-65.9153	63.1109	63.2582	-64.8211	46.4776	49.1967	-90.0168	36.0355	25.7909	-98.4156	87.8409	62.1262	-76.1081	75.6888	54.5884	-103.017	60.7439	33.3428	-121.233	100.513	47.9465	-68.6566	91.6126	37.5218	-95.6779	74.8532	15.0366	-106.654	111.418	29.1834	-56.1452	95.7717	13.2056	-78.9833	78.3724	-9.53838	-73.7474	119.004	54.1612	-16.6438	122.104	53.2842	8.54096	93.1604	69.3429	3.23304	
190	1.58333	61.2619	47.3618	11.7661	48.1863	31.6503	-16.1736	46.4156	17.8069	-50.175	59.2117	4.62196	-68.0928	63.0016	65.7581	-66.5499	48.9583	53.0211	-89.2438	33.5465	30.0541	-100.059	89.3956	64.1061	-73.7878	81.3704	55.7429	-103.575	66.2983	34.3763	-124.188	100.404	48.7878	-65.4308	96.1288	37.067	-94.1695	77.6746	16.2657	-107.506	114.147	28.4882	-56.3768	97.0418	16.6156	-77.0473	80.8309	-4.49506	-78.3413	116.501	56.7504	-19.0854	124.406	53.2922	9.25862	91.5721	69.3642	1.69859	
191	1.59167	60.0417	50.2647	11.5519	44.3705	32.2695	-16.3903	42.2379	18.2205	-46.495	55.7568	5.18393	-66.67	66.8151	65.5727	-67.0624	53.9945	51.3778	-90.2225	38.3584	34.6191	-100.551	92.7782	63.7883	-72.3801	83.4942	59.2266	-100.465	68.1212	34.587	-125.018	105.123	45.3274	-70.7893	93.3233	36.1452	-93.9023	77.6533	9.98895	-104.368	112.508	28.7049	-59.5642	100.802	16.1882	-76.6543	83.4301	-2.97438	-81.6643	121.4	51.0697	-15.4871	127.278	49.6161	13.4674	93.3201	71.8696	-0.609648	
192	1.6	64.3612	51.2933	13.595	48.0664	35.6295	-18.5723	46.2326	21.2453	-46.8885	53.9177	7.28964	-61.7702	70.031	66.3821	-64.8159	56.2285	56.5104	-89.1414	41.008	34.5042	-102.272	94.3787	62.55	-72.4473	85.7248	53.0549	-102.934	68.2281	32.5638	-121.322	103.503	46.3671	-64.8714	94.8163	30.1626	-91.4436	74.5873	4.29424	-94.804	112.853	27.7738	-55.4544	101.213	13.8676	-76.7048	84.321	-2.32417	-77.9715	123.212	52.8528	-15.4162	128.323	50.504	15.1215	98.8327	69.9713	-1.06672	
193	1.60833	61.6086	53.3842	11.003	45.9548	37.5479	-17.5367	45.1591	23.6746	-43.5633	52.7225	6.99196	-65.4483	72.1455	68.6906	-62.5764	58.3789	54.2966	-90.4699	40.7392	39.877	-100.865	94.1749	60.946	-74.8449	84.2901	48.6479	-101.162	63.5849	25.7153	-118.76	104.846	41.154	-67.0285	91.9753	25.2385	-89.3768	69.8717	3.88204	-85.7148	116.639	23.9835	-58.0524	101.376	9.89038	-76.4976	81.1434	-8.19477	-76.7216	121.93	52.754	-18.0786	124.677	52.5266	11.6772	97.9409	71.1277	0.380624	
194	1.61667	63.1055	54.9206	9.36911	50.2033	37.1818	-16.7984	45.1451	23.8669	-42.8415	55.7242	9.26525	-66.6666	73.657	69.1367	-61.5225	58.0829	58.4011	-88.5746	45.0891	38.3427	-102.844	94.1382	59.2994	-70.1292	82.6801	46.3466	-100.727	62.6029	21.2297	-114.41	106.1	38.5494	-66.2369	90.0078	22.0563	-86.3026	66.5991	-3.17152	-75.9421	114.45	26.4038	-57.5855	102.893	9.07069	-75.797	84.8316	-8.49572	-76.1194	124.597	50.7456	-14.6584	131.15	50.8018	12.5066	98.2196	71.9459	2.22486	
195	1.625	65.7271	51.7732	13.1114	48.3536	37.3884	-17.4749	49.2118	22.954	-45.4893	54.1617	9.74727	-62.0098	75.4741	67.5769	-63.3243	61.807	60.0836	-87.2873	42.4707	39.3963	-104.645	93.6833	58.9675	-72.1366	83.6673	46.7198	-98.5582	61.904	17.2363	-112.904	104.683	38.226	-69.354	88.4698	17.2177	-85.6382	70.3465	-2.74254	-75.4288	118.065	24.9486	-57.6743	107.629	11.6466	-73.7866	87.212	-6.01467	-78.0274	125.216	51.7039	-17.1112	128.26	49.3784	12.7959	100.774	70.7539	-0.384898	
196	1.63333	65.7099	52.0724	9.07569	51.0922	37.1736	-18.4499	45.4311	24.0884	-45.1268	55.6913	8.51489	-64.9028	75.6632	69.4279	-65.8285	65.0594	61.17	-88.6101	47.2692	41.9932	-105.592	96.2377	58.1563	-71.5698	82.8972	42.1616	-101.357	61.8999	19.7871	-109.928	107.251	36.3471	-69.569	90.9751	16.3534	-86.2514	68.9099	-5.27582	-74.574	120.573	24.504	-54.2809	108.955	13.6608	-76.6061	93.1512	-1.88277	-82.2852	125.925	52.3087	-14.7012	128.595	49.1872	17.066	102.383	69.7545	4.74259	
197	1.64167	68.1808	51.9586	10.8961	51.2389	38.431	-18.6729	44.7413	24.2224	-47.0948	46.0462	9.65519	-65.5558	77.7115	71.24	-64.2602	66.0695	60.9504	-91.8503	53.0029	44.9257	-108.127	96.3737	57.2869	-74.0529	84.8773	42.8133	-97.261	59.1042	20.0185	-105.87	109.7	38.9469	-66.6711	94.5466	25.2797	-86.7033	71.28	0.388554	-81.803	122.81	26.4976	-53.2489	117.613	17.0178	-76.4462	101.315	0.136214	-88.5068	127.787	49.8571	-14.3353	132.014	48.537	15.7276	100.501	71.5703	1.86405	
198	1.65	65.1878	54.5328	12.1465	51.2894	38.7532	-17.8869	42.8351	26.1921	-41.909	45.3647	11.6707	-65.1734	80.214	71.8032	-60.6581	71.4377	64.1799	-87.9025	54.4391	48.2405	-108.749	97.5793	54.4263	-72.2958	77.1735	40.202	-94.8083	56.6833	13.7867	-95.9779	110.891	41.5777	-65.0323	96.4192	27.3443	-87.4461	75.9716	0.36595	-85.3168	126.55	28.7992	-49.8037	124.526	21.3734	-74.5156	109.944	8.31301	-94.7177	126.677	50.625	-10.9912	130.226	47.4047	14.846	103.564	68.5517	5.81081	
199	1.65833	65.4099	54.1135	9.93096	53.0215	38.2168	-14.8166	45.4786	26.6913	-44.5646	44.9631	14.1511	-63.093	81.4774	70.9682	-63.0189	69.5419	66.9946	-88.0103	58.8477	49.4003	-108.76	97.941	52.7142	-67.4769	80.7806	35.6638	-90.2294	55.2544	7.97852	-84.7911	113.774	41.3728	-66.4027	102.003	26.1712	-87.3227	76.3897	4.01339	-88.4479	130.809	30.9122	-50.2081	130.154	25.3869	-74.6459	118.686	14.1561	-96.6896	129.422	49.3549	-8.19431	130.421	47.4106	18.7255	104.171	70.2198	4.07033	
200	1.66667	70.0279	50.8769	15.2071	52.5671	39.0632	-11.0475	42.2359	27.3411	-39.7577	46.782	14.9372	-61.6051	85.6154	69.147	-58.9536	72.8172	64.0515	-87.3835	58.9846	51.548	-106.979	95.8318	53.6139	-66.7196	76.6239	31.2087	-87.5306	55.9903	1.3097	-76.5906	113.176	43.0139	-63.4952	100.008	28.3975	-86.5599	80.8001	3.94528	-88.1135	132.88	27.7521	-43.6963	131.06	29.2922	-72.2268	123.438	16.5771	-95.6158	126.21	50.1318	-6.88372	132.331	46.8352	19.7308	102.695	71.2392	10.2981	
201	1.675	68.8696	51.1956	16.4352	51.9944	38.636	-11.3787	42.7984	26.6985	-41.7211	45.6741	14.6004	-59.0907	87.4524	67.9832	-57.2748	73.1235	64.0244	-87.9062	59.9507	51.8416	-106.33	97.9764	49.1176	-70.5613	77.604	34.7471	-87.2746	58.6285	0.794753	-74.2998	112.427	44.2007	-63.7849	101.173	27.2897	-87.7844	81.0507	6.13467	-88.664	131.691	30.3673	-44.7634	133.482	28.3622	-69.5983	128.767	18.1459	-93.4933	128.875	48.0405	-10.487	133.699	44.8206	19.1432	107.156	68.2031	5.13869	
